Genre:Action | Crime | Drama
Language:English
IMDb:http://www.imdb.com/title/tt1596343/
Source:IMAGINE Thanks
Subtitles:Romana

Format : MPEG-4
Format profile : Base Media
Codec ID : isom
File size : 938 MiB
Duration : 1h 56mn
Overall bit rate : 1 123 Kbps

Video
Format profile : High@L4.1
Format settings, CABAC : Yes
Format settings, ReFrames : 3 frames
Codec ID : avc1
Codec ID/Info : Advanced Video Coding
Duration : 1h 56mn
Bit rate mode : Variable
Bit rate : 897 Kbps
Maximum bit rate : 3 897 Kbps
Width : 720 pixels
Height : 304 pixels
Display aspect ratio : 2.35:1
Frame rate mode : Constant
Frame rate : 23.976 fps
Color space : YUV
Chroma subsampling : 4:2:0
Bit depth : 8 bits
Scan type : Progressive
Bits/(Pixel*Frame) : 0.171
Stream size : 748 MiB (80%)
Writing library : x264


Audio
ID : 2
Format : AAC
Format/Info : Advanced Audio Codec
Format version : Version 4
Format profile : LC
Format settings, SBR : No
Codec ID : 40
Duration : 1h 56mn
Bit rate mode : Variable
Bit rate : 224 Kbps
Maximum bit rate : 283 Kbps
Channel(s) : 2 channels
Channel positions : Front: L R
Sampling rate : 44.1 KHz
Stream size : 187 MiB (20%)


Plot:
Dominic and his crew find themselves on the wrong side of the law once again as they try to switch lanes between a ruthless drug lord and a relentless federal agent.

Screens:
 
http://www.pix2links.com/images/47050068996882014105.png 
http://www.pix2links.com/images/44809441732729910563.png 
http://www.pix2links.com/images/31439830476581974764.png 
http://www.pix2links.com/images/32179263845820385216.png 
http://www.pix2links.com/images/57129918242073351187.png 
http://www.pix2links.com/images/64674688087628679479.png 
http://www.pix2links.com/images/79874760755972853593.png 
http://www.pix2links.com/images/76493184708773906018.png

Greets:

INK,CRYS,IMAGINE,LKRG,FXG,3Li,FLAWL3SS,TA,iLLUSiON,ViSiON,DTRG SAFCuk009,LU,TheFalcon007,MYSTiC,PrisM,Noir,WBZ,LAP,Rx,Kingdom,SAFCuk009+Fabreezy,HDLiTE,TWiZTED,ExtraTorrentRG.ELEKTRI4KA,MAGNAT,CM8
And to all the other p2p grps past and present.